<svg width="32" height="33" viewBox="0 0 32 33" fill="none" xmlns="http://www.w3.org/2000/svg">
<path d="M15.2717 31.06H4.95143C4.00199 31.058 3.0919 30.6804 2.41982 30.0098C1.74773 29.3392 1.36823 28.4299 1.36414 27.4805V4.93397C1.36618 3.98319 1.74479 3.07194 2.41709 2.39964C3.0894 1.72733 4.00065 1.34873 4.95143 1.34668H27.095" stroke="#B8DBD9" stroke-width="2" stroke-linecap="round" stroke-linejoin="round"/>
<path d="M30.6824 4.93359V27.4646C30.6824 28.4167 30.3047 29.3299 29.6322 30.0039C28.9596 30.6779 28.0472 31.0576 27.0951 31.0596H20.1219" stroke="#B8DBD9" stroke-width="2" stroke-linecap="round" stroke-linejoin="round"/>
<path d="M30.5 2.5C31.0523 2.5 31.5 2.05228 31.5 1.5C31.5 0.947715 31.0523 0.5 30.5 0.5C29.9477 0.5 29.5 0.947715 29.5 1.5C29.5 2.05228 29.9477 2.5 30.5 2.5Z" fill="#B8DBD9"/>
<path d="M15.2716 31.0601V21.383H11.8625V16.7807H15.2716V12.3411C15.2716 11.1082 15.7614 9.92578 16.6332 9.05397C17.505 8.18216 18.6875 7.69238 19.9204 7.69238H24.7474V12.07H21.2143C21.0621 12.0699 20.9114 12.1004 20.7712 12.1595C20.6309 12.2187 20.504 12.3054 20.3978 12.4144C20.2916 12.5235 20.2084 12.6527 20.153 12.7945C20.0976 12.9363 20.0712 13.0877 20.0754 13.2399V16.7575H24.7241V21.4062H20.0754V31.0601" stroke="#B8DBD9" stroke-width="2" stroke-linecap="round" stroke-linejoin="round"/>
</svg>
