<svg width="296" height="78" viewBox="0 0 296 78" fill="none" xmlns="http://www.w3.org/2000/svg">
<g opacity="0.75" filter="url(#filter0_f_272_102)">
<path d="M57.5959 2H238.404C245.652 2 254.163 6.1014 257.347 12.1263C264.78 12.1264 273.17 17.5451 274.41 24.6753C281.285 27.4949 288.096 36.78 294 39C288.096 41.22 281.285 50.5051 274.41 53.3247C273.17 60.4549 264.78 65.8736 257.347 65.8737C254.163 71.8986 245.652 76 238.404 76H57.5959C50.3482 76 41.8373 71.8986 38.6526 65.8737C31.2204 65.8736 22.8304 60.4549 21.59 53.3247C14.7153 50.5051 7.90394 41.22 2 39C7.90394 36.78 14.7153 27.4949 21.59 24.6753C22.8304 17.5451 31.2204 12.1264 38.6526 12.1263C41.8373 6.1014 50.3482 2 57.5959 2Z" fill="#1C6981"/>
</g>
<path d="M62.4059 20.304V22.624L59.6379 24.352C60.7579 24.8853 61.6432 25.6107 62.2939 26.528C62.9445 27.52 63.3019 28.6827 63.3659 30.016C63.3659 30.5173 63.2005 30.9547 62.8699 31.328C62.4645 31.776 61.9632 32 61.3659 32H52.5819C51.8992 32 51.2859 31.7973 50.7419 31.392C49.9312 30.7733 49.5259 29.9413 49.5259 28.896V26.688L50.7259 25.712H51.9899V28.896C51.9899 29.2267 52.1019 29.488 52.3259 29.68C52.5072 29.8507 52.7205 29.936 52.9659 29.936H60.6459C60.7952 29.936 60.8699 29.8667 60.8699 29.728C60.8699 29.12 60.6139 28.4907 60.1019 27.84C59.1739 26.6987 57.9792 26.0693 56.5179 25.952C56.4325 25.9413 56.3899 25.888 56.3899 25.792V23.792L62.4059 20.304ZM70.074 24.64V31.392C70.074 32.8427 69.6047 33.952 68.666 34.72C68.122 35.1787 67.4767 35.4987 66.73 35.68C66.3567 35.7653 65.9407 35.808 65.482 35.808L65.066 35.776L64.058 34.512V33.664C64.09 33.6747 64.1487 33.6853 64.234 33.696C64.5113 33.7493 64.7567 33.776 64.97 33.776C65.8553 33.7547 66.5113 33.536 66.938 33.12C67.3753 32.6827 67.594 32.0107 67.594 31.104V24.64H70.074ZM74.7399 20.544V29.712C74.7399 29.7333 74.7452 29.7653 74.7559 29.808L74.7719 29.824C74.8039 29.8987 74.8679 29.936 74.9639 29.936H75.5559V32H74.2599C73.7372 32 73.2785 31.8133 72.8839 31.44C72.4785 31.0453 72.2759 30.5707 72.2759 30.016V20.544H74.7399ZM80.7644 24.64V29.792C80.7644 29.8347 80.7697 29.8827 80.7804 29.936H81.5644V32H81.0684L80.3644 31.264H80.3324C79.927 31.7547 79.4044 32 78.7644 32H75.4204V29.936H77.9804C78.0764 29.936 78.151 29.904 78.2044 29.84C78.2684 29.7867 78.3004 29.712 78.3004 29.616V24.64H80.7644ZM79.5164 32.736C79.8577 32.736 80.151 32.8587 80.3964 33.104C80.6417 33.3493 80.7644 33.648 80.7644 34C80.7644 34.3413 80.6417 34.6347 80.3964 34.88C80.151 35.1253 79.8577 35.248 79.5164 35.248C79.1644 35.248 78.8657 35.1253 78.6204 34.88C78.3857 34.6347 78.2684 34.3413 78.2684 34C78.2684 33.648 78.3857 33.3493 78.6204 33.104C78.8657 32.8587 79.1644 32.736 79.5164 32.736ZM84.0436 29.936C83.9476 29.456 83.8996 28.8747 83.8996 28.192C83.8996 26.9547 84.305 25.9893 85.1156 25.296C85.777 24.7413 86.5823 24.464 87.5316 24.464C88.5983 24.464 89.4356 24.72 90.0436 25.232C90.705 25.7973 91.0356 26.5333 91.0356 27.44V29.712C91.0356 29.776 91.057 29.8293 91.0996 29.872C91.153 29.9147 91.217 29.936 91.2916 29.936H91.5476V32H90.5716C90.081 32 89.6436 31.84 89.2596 31.52C88.7583 32.16 88.065 32.48 87.1796 32.48C86.3156 32.48 85.5743 32.144 84.9556 31.472H84.8916L84.4756 32H81.4516V29.936H84.0436ZM88.5716 27.456C88.5716 27.2107 88.4916 26.992 88.3316 26.8C88.1503 26.608 87.905 26.512 87.5956 26.512C87.201 26.512 86.8916 26.672 86.6676 26.992C86.4436 27.3013 86.3316 27.7333 86.3316 28.288C86.3316 29.7067 86.7156 30.416 87.4836 30.416C87.857 30.416 88.2196 30.256 88.5716 29.936V27.456ZM96.78 20.544V30.016C96.78 30.4853 96.6307 30.9067 96.332 31.28C95.9267 31.76 95.4093 32 94.78 32H91.436V29.936H94.076C94.14 29.936 94.1933 29.92 94.236 29.888C94.2893 29.8453 94.316 29.7867 94.316 29.712V20.544H96.78ZM101.459 20.544V31.392L100.211 32.4H98.9946V20.544H101.459ZM111.324 24.64V29.936H112.124V32H111.292C111.175 33.2267 110.641 34.1973 109.692 34.912C108.892 35.4987 107.953 35.792 106.876 35.792C106.759 35.792 106.572 35.7867 106.316 35.776L105.308 34.512V33.664C105.34 33.6747 105.399 33.6853 105.484 33.696C105.761 33.7493 106.007 33.776 106.22 33.776C107.105 33.7547 107.761 33.5307 108.188 33.104C108.625 32.6667 108.844 32 108.844 31.104V24.64H111.324ZM117.358 24.64V30.016C117.358 30.4853 117.203 30.9067 116.894 31.28C116.489 31.76 115.977 32 115.358 32H112.014V29.936H114.654C114.718 29.936 114.771 29.92 114.814 29.888C114.867 29.8453 114.894 29.7867 114.894 29.712V24.64H117.358ZM113.31 32.736C113.651 32.736 113.945 32.8587 114.19 33.104C114.435 33.3493 114.558 33.648 114.558 34C114.558 34.3413 114.435 34.6347 114.19 34.88C113.945 35.1253 113.651 35.248 113.31 35.248C112.958 35.248 112.659 35.1253 112.414 34.88C112.179 34.6347 112.062 34.3413 112.062 34C112.062 33.648 112.179 33.3493 112.414 33.104C112.659 32.8587 112.958 32.736 113.31 32.736ZM116.174 32.736C116.515 32.736 116.809 32.8587 117.054 33.104C117.299 33.3493 117.422 33.648 117.422 34C117.422 34.3413 117.299 34.6347 117.054 34.88C116.809 35.1253 116.515 35.248 116.174 35.248C115.822 35.248 115.523 35.1253 115.278 34.88C115.043 34.6347 114.926 34.3413 114.926 34C114.926 33.648 115.043 33.3493 115.278 33.104C115.523 32.8587 115.822 32.736 116.174 32.736ZM120.74 24.544C121.017 24.48 121.401 24.448 121.892 24.448C123.204 24.448 124.26 24.8587 125.06 25.68C125.775 26.416 126.132 27.3493 126.132 28.48V29.264C126.132 29.5627 126.137 29.7867 126.148 29.936H126.548V32H126.34L125.748 31.264H125.7C125.604 31.3707 125.519 31.4613 125.444 31.536C125.071 31.8347 124.649 31.9893 124.18 32H119.124V29.936H123.444C123.593 29.936 123.668 29.8613 123.668 29.712V28.672C123.668 28.0213 123.465 27.488 123.06 27.072C122.665 26.656 122.148 26.448 121.508 26.448C121.177 26.448 120.921 26.4693 120.74 26.512V24.544ZM133.012 21.12C133.364 21.12 133.658 21.2427 133.892 21.488C134.138 21.7227 134.26 22.016 134.26 22.368C134.26 22.7093 134.138 23.0027 133.892 23.248C133.658 23.4933 133.364 23.616 133.012 23.616C132.671 23.616 132.378 23.4933 132.132 23.248C131.887 23.0027 131.764 22.7093 131.764 22.368C131.764 22.0267 131.887 21.7333 132.132 21.488C132.378 21.2427 132.671 21.12 133.012 21.12ZM128.644 27.632C129.039 26.4587 129.732 25.6053 130.724 25.072C131.428 24.6773 132.244 24.48 133.172 24.48C134.047 24.48 134.836 24.7147 135.54 25.184C136.394 25.728 137.007 26.544 137.38 27.632L137.188 28.128C136.943 28.2667 136.618 28.528 136.212 28.912C135.828 29.296 135.546 29.6373 135.364 29.936H137.54V32H133.78C133.524 32 133.279 31.872 133.044 31.616H132.98C132.746 31.872 132.484 32 132.196 32H126.42V29.936H130.66C130.49 29.6373 130.212 29.3067 129.828 28.944C129.412 28.528 129.082 28.256 128.836 28.128L128.644 27.632ZM134.836 27.536C134.676 27.152 134.378 26.8747 133.94 26.704C133.674 26.5973 133.38 26.544 133.06 26.544C132.644 26.544 132.271 26.6187 131.94 26.768C131.567 26.9387 131.316 27.1947 131.188 27.536C131.402 27.664 131.706 27.9573 132.1 28.416C132.548 28.928 132.836 29.344 132.964 29.664H133.06C133.21 29.2907 133.524 28.848 134.004 28.336C134.356 27.9307 134.634 27.664 134.836 27.536ZM142.78 20.544V30.016C142.78 30.4853 142.631 30.9067 142.332 31.28C141.927 31.76 141.409 32 140.78 32H137.436V29.936H140.076C140.14 29.936 140.193 29.92 140.236 29.888C140.289 29.8453 140.316 29.7867 140.316 29.712V20.544H142.78ZM147.459 20.544V31.392L146.211 32.4H144.995V20.544H147.459ZM153.74 24.544C154.017 24.48 154.401 24.448 154.892 24.448C156.204 24.448 157.26 24.8587 158.06 25.68C158.775 26.416 159.132 27.3493 159.132 28.48V29.264C159.132 29.5627 159.137 29.7867 159.148 29.936H159.548V32H159.34L158.748 31.264H158.7C158.604 31.3707 158.519 31.4613 158.444 31.536C158.071 31.8347 157.649 31.9893 157.18 32H152.124V29.936H156.444C156.593 29.936 156.668 29.8613 156.668 29.712V28.672C156.668 28.0213 156.465 27.488 156.06 27.072C155.665 26.656 155.148 26.448 154.508 26.448C154.177 26.448 153.921 26.4693 153.74 26.512V24.544ZM164.764 24.64V29.792C164.764 29.8347 164.77 29.8827 164.78 29.936H165.58V32H165.084L164.38 31.264H164.332C163.938 31.7547 163.42 32 162.78 32H159.436V29.936H161.98C162.087 29.936 162.167 29.904 162.22 29.84C162.274 29.7867 162.3 29.712 162.3 29.616V24.64H164.764ZM160.636 32.736C160.988 32.736 161.287 32.8587 161.532 33.104C161.778 33.3493 161.9 33.648 161.9 34C161.9 34.3413 161.778 34.6347 161.532 34.88C161.287 35.1253 160.988 35.248 160.636 35.248C160.295 35.248 160.002 35.1253 159.756 34.88C159.511 34.6347 159.388 34.3413 159.388 34C159.388 33.648 159.511 33.3493 159.756 33.104C160.002 32.8587 160.295 32.736 160.636 32.736ZM163.5 32.736C163.852 32.736 164.151 32.8587 164.396 33.104C164.642 33.3493 164.764 33.648 164.764 34C164.764 34.3413 164.642 34.6347 164.396 34.88C164.151 35.1253 163.852 35.248 163.5 35.248C163.159 35.248 162.866 35.1253 162.62 34.88C162.386 34.6347 162.268 34.3413 162.268 34C162.268 33.648 162.386 33.3493 162.62 33.104C162.866 32.8587 163.159 32.736 163.5 32.736ZM168.412 29.936C168.316 29.7547 168.22 29.5307 168.124 29.264C167.985 28.8053 167.916 28.3733 167.916 27.968C167.916 26.816 168.358 25.9093 169.244 25.248C169.958 24.7147 170.817 24.448 171.82 24.448H171.868H171.948C172.577 24.448 173.196 24.5387 173.804 24.72V26.672C173.228 26.5547 172.71 26.496 172.252 26.496C171.004 26.496 170.38 27.056 170.38 28.176C170.38 28.6667 170.492 29.072 170.716 29.392C170.993 29.7547 171.462 29.936 172.124 29.936H175.116V30.752L174.124 32H165.452V29.936H168.412ZM181.311 29.936C180.991 29.2853 180.831 28.6133 180.831 27.92C180.831 26.8533 181.231 25.984 182.031 25.312C182.713 24.736 183.524 24.448 184.463 24.448C185.508 24.448 186.345 24.7147 186.975 25.248C187.625 25.792 187.951 26.5227 187.951 27.44V29.712C187.951 29.7867 187.977 29.84 188.031 29.872C188.073 29.9147 188.132 29.936 188.207 29.936H188.463V32H187.487C187.092 32 186.772 31.9253 186.527 31.776C186.399 31.7013 186.228 31.5627 186.015 31.36C185.855 31.5307 185.657 31.664 185.423 31.76C185.06 31.92 184.655 32 184.207 32H182.287C182.137 32 182.063 32.0747 182.063 32.224V36.976L180.815 37.968H179.599V31.904C179.599 31.424 179.753 31.0027 180.063 30.64C180.468 30.1707 180.916 29.936 181.407 29.936H181.311ZM185.487 27.456C185.487 27.168 185.391 26.9333 185.199 26.752C185.028 26.592 184.825 26.512 184.591 26.512C183.705 26.512 183.263 27.072 183.263 28.192C183.263 28.7573 183.401 29.2053 183.679 29.536C183.956 29.856 184.335 30.016 184.815 30.016C184.996 30.016 185.22 29.9893 185.487 29.936V27.456ZM196.326 20.32V22.624L193.59 24.368C194.625 24.8693 195.457 25.5573 196.086 26.432C196.779 27.3813 197.179 28.448 197.286 29.632L197.302 29.936H197.814V32H197.494L196.902 31.264H196.854C196.449 31.7547 195.931 32 195.302 32H188.358V29.936H194.582C194.731 29.936 194.806 29.856 194.806 29.696C194.806 29.0347 194.481 28.336 193.83 27.6C192.913 26.5973 191.787 26.048 190.454 25.952C190.358 25.9413 190.31 25.8933 190.31 25.808V23.808L196.326 20.32ZM203.046 20.544V30.016C203.046 30.4853 202.896 30.9067 202.598 31.28C202.192 31.76 201.675 32 201.046 32H197.702V29.936H200.342C200.406 29.936 200.459 29.92 200.502 29.888C200.555 29.8453 200.582 29.7867 200.582 29.712V20.544H203.046ZM221.078 20.304V22.624L218.31 24.352C219.43 24.8853 220.315 25.6107 220.966 26.528C221.616 27.52 221.974 28.6827 222.038 30.016C222.038 30.5173 221.872 30.9547 221.542 31.328C221.136 31.776 220.635 32 220.038 32H211.254C210.571 32 209.958 31.7973 209.414 31.392C208.603 30.7733 208.198 29.9413 208.198 28.896V26.688L209.398 25.712H210.662V28.896C210.662 29.2267 210.774 29.488 210.998 29.68C211.179 29.8507 211.392 29.936 211.638 29.936H219.318C219.467 29.936 219.542 29.8667 219.542 29.728C219.542 29.12 219.286 28.4907 218.774 27.84C217.846 26.6987 216.651 26.0693 215.19 25.952C215.104 25.9413 215.062 25.888 215.062 25.792V23.792L221.078 20.304ZM228.746 24.64V31.392C228.746 32.8427 228.277 33.952 227.338 34.72C226.794 35.1787 226.149 35.4987 225.402 35.68C225.029 35.7653 224.613 35.808 224.154 35.808L223.738 35.776L222.73 34.512V33.664C222.762 33.6747 222.821 33.6853 222.906 33.696C223.183 33.7493 223.429 33.776 223.642 33.776C224.527 33.7547 225.183 33.536 225.61 33.12C226.047 32.6827 226.266 32.0107 226.266 31.104V24.64H228.746ZM233.412 20.544V29.712C233.412 29.7333 233.417 29.7653 233.428 29.808L233.444 29.824C233.476 29.8987 233.54 29.936 233.636 29.936H234.228V32H232.932C232.409 32 231.95 31.8133 231.556 31.44C231.15 31.0453 230.948 30.5707 230.948 30.016V20.544H233.412ZM239.436 24.64V29.792C239.436 29.8347 239.442 29.8827 239.452 29.936H240.236V32H239.74L239.036 31.264H239.004C238.599 31.7547 238.076 32 237.436 32H234.092V29.936H236.652C236.748 29.936 236.823 29.904 236.876 29.84C236.94 29.7867 236.972 29.712 236.972 29.616V24.64H239.436ZM238.188 32.736C238.53 32.736 238.823 32.8587 239.068 33.104C239.314 33.3493 239.436 33.648 239.436 34C239.436 34.3413 239.314 34.6347 239.068 34.88C238.823 35.1253 238.53 35.248 238.188 35.248C237.836 35.248 237.538 35.1253 237.292 34.88C237.058 34.6347 236.94 34.3413 236.94 34C236.94 33.648 237.058 33.3493 237.292 33.104C237.538 32.8587 237.836 32.736 238.188 32.736ZM244.22 21.12C244.572 21.12 244.865 21.2427 245.1 21.488C245.345 21.7227 245.468 22.016 245.468 22.368C245.468 22.7093 245.345 23.0027 245.1 23.248C244.865 23.4933 244.572 23.616 244.22 23.616C243.878 23.616 243.585 23.4933 243.34 23.248C243.094 23.0027 242.972 22.7093 242.972 22.368C242.972 22.0267 243.094 21.7333 243.34 21.488C243.585 21.2427 243.878 21.12 244.22 21.12ZM245.468 24.64V30.016C245.468 30.4853 245.313 30.9067 245.004 31.28C244.598 31.76 244.086 32 243.468 32H240.123V29.936H242.764C242.828 29.936 242.881 29.92 242.924 29.888C242.977 29.8453 243.004 29.7867 243.004 29.712V24.64H245.468ZM85.5874 46.544L86.4834 47.264C85.9288 48.128 85.5181 49.0773 85.2514 50.112C84.9848 51.0933 84.8514 52.112 84.8514 53.168C84.8514 54.352 85.0274 55.4987 85.3794 56.608C85.6248 57.3653 85.9928 58.16 86.4834 58.992L85.5874 59.696H84.9314C84.1848 58.8427 83.6248 57.84 83.2514 56.688C82.8888 55.5893 82.7074 54.4213 82.7074 53.184C82.7074 51.936 82.8888 50.752 83.2514 49.632C83.6248 48.4587 84.1848 47.4293 84.9314 46.544H85.5874ZM93.0349 50.64V55.936H93.8349V58H93.0029C92.8856 59.2267 92.3523 60.1973 91.4029 60.912C90.6029 61.4987 89.6643 61.792 88.5869 61.792C88.4696 61.792 88.2829 61.7867 88.0269 61.776L87.0189 60.512V59.664C87.0509 59.6747 87.1096 59.6853 87.1949 59.696C87.4723 59.7493 87.7176 59.776 87.9309 59.776C88.8163 59.7547 89.4723 59.5307 89.8989 59.104C90.3363 58.6667 90.5549 58 90.5549 57.104V50.64H93.0349ZM99.0691 50.64V55.792C99.0691 55.8347 99.0744 55.8827 99.0851 55.936H99.8851V58H99.3891L98.6851 57.264H98.6371C98.2424 57.7547 97.7251 58 97.0851 58H93.7411V55.936H96.2851C96.3917 55.936 96.4717 55.904 96.5251 55.84C96.5784 55.7867 96.6051 55.712 96.6051 55.616V50.64H99.0691ZM94.9411 58.736C95.2931 58.736 95.5917 58.8587 95.8371 59.104C96.0824 59.3493 96.2051 59.648 96.2051 60C96.2051 60.3413 96.0824 60.6347 95.8371 60.88C95.5917 61.1253 95.2931 61.248 94.9411 61.248C94.5997 61.248 94.3064 61.1253 94.0611 60.88C93.8157 60.6347 93.6931 60.3413 93.6931 60C93.6931 59.648 93.8157 59.3493 94.0611 59.104C94.3064 58.8587 94.5997 58.736 94.9411 58.736ZM97.8051 58.736C98.1571 58.736 98.4557 58.8587 98.7011 59.104C98.9464 59.3493 99.0691 59.648 99.0691 60C99.0691 60.3413 98.9464 60.6347 98.7011 60.88C98.4557 61.1253 98.1571 61.248 97.8051 61.248C97.4637 61.248 97.1704 61.1253 96.9251 60.88C96.6904 60.6347 96.5731 60.3413 96.5731 60C96.5731 59.648 96.6904 59.3493 96.9251 59.104C97.1704 58.8587 97.4637 58.736 97.8051 58.736ZM104.828 47.12C105.17 47.12 105.458 47.2427 105.692 47.488C105.938 47.7227 106.06 48.016 106.06 48.368C106.06 48.72 105.938 49.0187 105.692 49.264C105.458 49.4987 105.17 49.616 104.828 49.616C104.476 49.616 104.178 49.4933 103.932 49.248C103.687 49.0027 103.564 48.7093 103.564 48.368C103.564 48.0267 103.687 47.7333 103.932 47.488C104.178 47.2427 104.476 47.12 104.828 47.12ZM101.884 50.912C102.898 50.6027 103.831 50.448 104.684 50.448C105.954 50.448 107.026 50.848 107.9 51.648C108.711 52.3947 109.116 53.3067 109.116 54.384V55.792C109.116 55.8347 109.122 55.8827 109.132 55.936H109.628V58H109.308L108.716 57.264H108.668C108.274 57.7547 107.756 58 107.116 58H99.7563V55.936H106.412C106.562 55.936 106.636 55.8613 106.636 55.712V54.656C106.636 54.048 106.391 53.5467 105.9 53.152C105.42 52.7467 104.818 52.544 104.092 52.544C103.495 52.544 102.759 52.656 101.884 52.88V50.912ZM114.85 50.64V56.016C114.85 56.4853 114.696 56.9067 114.386 57.28C113.981 57.76 113.469 58 112.85 58H109.506V55.936H112.146C112.21 55.936 112.264 55.92 112.306 55.888C112.36 55.8453 112.386 55.7867 112.386 55.712V50.64H114.85ZM113.298 58.736C113.64 58.736 113.933 58.8587 114.178 59.104C114.424 59.3493 114.546 59.648 114.546 60C114.546 60.3413 114.424 60.6347 114.178 60.88C113.933 61.1253 113.64 61.248 113.298 61.248C112.946 61.248 112.648 61.1253 112.402 60.88C112.168 60.6347 112.05 60.3413 112.05 60C112.05 59.648 112.168 59.3493 112.402 59.104C112.648 58.8587 112.946 58.736 113.298 58.736ZM121.49 55.936C121.17 55.2853 121.01 54.6133 121.01 53.92C121.01 52.8533 121.41 51.984 122.21 51.312C122.893 50.736 123.704 50.448 124.642 50.448C125.688 50.448 126.525 50.7147 127.154 51.248C127.805 51.792 128.13 52.5227 128.13 53.44V55.712C128.13 55.7867 128.157 55.84 128.21 55.872C128.253 55.9147 128.312 55.936 128.386 55.936H128.642V58H127.666C127.272 58 126.952 57.9253 126.706 57.776C126.578 57.7013 126.408 57.5627 126.194 57.36C126.034 57.5307 125.837 57.664 125.602 57.76C125.24 57.92 124.834 58 124.386 58H122.466C122.317 58 122.242 58.0747 122.242 58.224V62.976L120.994 63.968H119.778V57.904C119.778 57.424 119.933 57.0027 120.242 56.64C120.648 56.1707 121.096 55.936 121.586 55.936H121.49ZM125.666 53.456C125.666 53.168 125.57 52.9333 125.378 52.752C125.208 52.592 125.005 52.512 124.77 52.512C123.885 52.512 123.442 53.072 123.442 54.192C123.442 54.7573 123.581 55.2053 123.858 55.536C124.136 55.856 124.514 56.016 124.994 56.016C125.176 56.016 125.4 55.9893 125.666 55.936V53.456ZM130.01 47.12C130.351 47.12 130.644 47.2427 130.89 47.488C131.135 47.7333 131.258 48.0267 131.258 48.368C131.258 48.7093 131.135 49.0027 130.89 49.248C130.644 49.4933 130.351 49.616 130.01 49.616C129.658 49.616 129.359 49.4933 129.114 49.248C128.879 49.0027 128.762 48.7093 128.762 48.368C128.762 48.016 128.879 47.7227 129.114 47.488C129.359 47.2427 129.658 47.12 130.01 47.12ZM132.874 47.12C133.215 47.12 133.508 47.2427 133.754 47.488C133.999 47.7333 134.122 48.0267 134.122 48.368C134.122 48.7093 133.999 49.0027 133.754 49.248C133.508 49.4933 133.215 49.616 132.874 49.616C132.522 49.616 132.223 49.4933 131.978 49.248C131.743 49.0027 131.626 48.7093 131.626 48.368C131.626 48.016 131.743 47.7227 131.978 47.488C132.223 47.2427 132.522 47.12 132.874 47.12ZM133.882 50.64V55.792C133.882 55.8347 133.887 55.8827 133.898 55.936H134.682V58H134.186L133.482 57.264H133.45C133.044 57.7547 132.522 58 131.882 58H128.538V55.936H131.098C131.194 55.936 131.268 55.904 131.322 55.84C131.386 55.7867 131.418 55.712 131.418 55.616V50.64H133.882ZM138.665 47.12C139.017 47.12 139.31 47.2427 139.545 47.488C139.79 47.7227 139.913 48.016 139.913 48.368C139.913 48.7093 139.79 49.0027 139.545 49.248C139.31 49.4933 139.017 49.616 138.665 49.616C138.323 49.616 138.03 49.4933 137.785 49.248C137.539 49.0027 137.417 48.7093 137.417 48.368C137.417 48.0267 137.539 47.7333 137.785 47.488C138.03 47.2427 138.323 47.12 138.665 47.12ZM139.913 50.64V56.016C139.913 56.4853 139.758 56.9067 139.449 57.28C139.043 57.76 138.531 58 137.913 58H134.569V55.936H137.209C137.273 55.936 137.326 55.92 137.369 55.888C137.422 55.8453 137.449 55.7867 137.449 55.712V50.64H139.913ZM144.591 46.544V57.392L143.343 58.4H142.127V46.544H144.591ZM151.151 58.016C150.799 58.1013 150.469 58.144 150.159 58.144C149.082 58.144 148.186 57.6907 147.471 56.784C146.874 56.0373 146.575 55.1893 146.575 54.24C146.575 53.152 146.906 52.256 147.567 51.552C148.271 50.816 149.194 50.448 150.335 50.448C151.199 50.448 151.925 50.6613 152.511 51.088C153.301 51.6427 153.695 52.4267 153.695 53.44V57.392V57.424C153.695 58.864 153.205 59.984 152.223 60.784C151.402 61.4667 150.367 61.808 149.119 61.808L148.703 61.776L147.695 60.512V59.664C147.727 59.6747 147.786 59.6853 147.871 59.696C148.149 59.7493 148.394 59.776 148.607 59.776C149.514 59.7547 150.181 59.52 150.607 59.072C150.863 58.8053 151.045 58.4533 151.151 58.016ZM151.231 53.456C151.231 53.1787 151.141 52.9493 150.959 52.768C150.789 52.5973 150.575 52.512 150.319 52.512C149.914 52.512 149.594 52.6613 149.359 52.96C149.125 53.248 149.007 53.6533 149.007 54.176C149.007 54.752 149.146 55.2213 149.423 55.584C149.701 55.936 150.063 56.112 150.511 56.112C150.735 56.112 150.975 56.0747 151.231 56V53.456ZM160.131 55.936C159.801 55.2853 159.635 54.6133 159.635 53.92C159.635 52.832 160.041 51.9573 160.851 51.296C161.545 50.7307 162.393 50.448 163.395 50.448C164.675 50.448 165.619 50.8747 166.227 51.728C166.579 52.2293 166.755 52.8 166.755 53.44V56.016C166.755 56.6453 166.51 57.1627 166.019 57.568C165.657 57.856 165.241 58 164.771 58H161.091C160.942 58 160.867 58.0747 160.867 58.224V62.976L159.619 63.968H158.403V57.904C158.403 57.3707 158.579 56.912 158.931 56.528C159.294 56.1333 159.721 55.936 160.211 55.936H160.131ZM164.291 53.456C164.291 53.0827 164.147 52.8053 163.859 52.624C163.721 52.5493 163.566 52.512 163.395 52.512C162.51 52.512 162.067 53.072 162.067 54.192C162.067 55.3547 162.665 55.936 163.859 55.936H164.067C164.217 55.936 164.291 55.8613 164.291 55.712V53.456ZM171.201 46.544V55.712C171.201 55.7333 171.206 55.7653 171.217 55.808L171.233 55.824C171.265 55.8987 171.329 55.936 171.425 55.936H172.017V58H170.721C170.198 58 169.739 57.8133 169.345 57.44C168.939 57.0453 168.737 56.5707 168.737 56.016V46.544H171.201ZM174.841 55.936C174.745 55.7547 174.649 55.5307 174.553 55.264C174.415 54.8053 174.345 54.3733 174.345 53.968C174.345 52.816 174.788 51.9093 175.673 51.248C176.388 50.7147 177.247 50.448 178.249 50.448H178.297H178.377C179.007 50.448 179.625 50.5387 180.233 50.72V52.672C179.657 52.5547 179.14 52.496 178.681 52.496C177.433 52.496 176.809 53.056 176.809 54.176C176.809 54.6667 176.921 55.072 177.145 55.392C177.423 55.7547 177.892 55.936 178.553 55.936H181.545V56.752L180.553 58H171.881V55.936H174.841ZM197.26 46.544V55.936H198.076V58H197.228C197.111 59.1733 196.636 60.1013 195.804 60.784C194.93 61.4773 193.815 61.824 192.46 61.824H191.052C189.474 61.824 188.242 61.3707 187.356 60.464C186.62 59.6853 186.252 58.6613 186.252 57.392V54.944L187.5 53.952H188.716V57.088C188.716 58.0693 188.946 58.7573 189.404 59.152C189.863 59.5573 190.647 59.76 191.756 59.76C192.866 59.76 193.644 59.568 194.092 59.184C194.562 58.768 194.796 58.0693 194.796 57.088V46.544H197.26ZM205.912 46.304V48.624L203.16 50.352C204.29 50.9067 205.208 51.7173 205.912 52.784C206.562 53.7653 206.888 54.7787 206.888 55.824C206.888 56.4533 206.701 56.976 206.328 57.392C205.954 57.7973 205.474 58 204.888 58H197.944V55.936H204.168C204.317 55.936 204.392 55.856 204.392 55.696C204.392 54.864 203.992 54.08 203.192 53.344C202.253 52.512 201.202 52.048 200.04 51.952C199.944 51.9413 199.896 51.888 199.896 51.792V49.792L205.912 46.304ZM209.405 46.544H210.077C210.824 47.4293 211.384 48.4587 211.757 49.632C212.12 50.7413 212.301 51.9253 212.301 53.184C212.301 54.4213 212.12 55.5893 211.757 56.688C211.384 57.84 210.824 58.8427 210.077 59.696H209.405L208.525 58.992C209.016 58.1707 209.384 57.376 209.629 56.608C209.981 55.4987 210.157 54.352 210.157 53.168C210.157 52.112 210.024 51.0933 209.757 50.112C209.48 49.0773 209.069 48.128 208.525 47.264L209.405 46.544Z" fill="#E2F0F1"/>
<defs>
<filter id="filter0_f_272_102" x="0" y="0" width="296" height="78" filterUnits="userSpaceOnUse" color-interpolation-filters="sRGB">
<feFlood flood-opacity="0" result="BackgroundImageFix"/>
<feBlend mode="normal" in="SourceGraphic" in2="BackgroundImageFix" result="shape"/>
<feGaussianBlur stdDeviation="1" result="effect1_foregroundBlur_272_102"/>
</filter>
</defs>
</svg>
