<svg width="32" height="33" viewBox="0 0 32 33" fill="none" xmlns="http://www.w3.org/2000/svg">
<path d="M30.8063 4.93397V27.465C30.8042 28.4144 30.4267 29.3245 29.7561 29.9966C29.0854 30.6687 28.1762 31.0482 27.2267 31.0523H5.07539C4.1273 31.0482 3.21919 30.6697 2.54878 29.9993C1.87837 29.3289 1.49993 28.4208 1.49585 27.4727V4.93397C1.49789 3.98453 1.87543 3.07444 2.54606 2.40236C3.21669 1.73028 4.12596 1.35077 5.07539 1.34668H27.2267" stroke="#B8DBD9" stroke-width="2" stroke-linecap="round" stroke-linejoin="round"/>
<path d="M30.5 2.5C31.0523 2.5 31.5 2.05228 31.5 1.5C31.5 0.947715 31.0523 0.5 30.5 0.5C29.9477 0.5 29.5 0.947715 29.5 1.5C29.5 2.05228 29.9477 2.5 30.5 2.5Z" fill="#B8DBD9"/>
<path d="M22.0045 11.5506C22.4324 11.5506 22.7793 11.2037 22.7793 10.7758C22.7793 10.3479 22.4324 10.001 22.0045 10.001C21.5766 10.001 21.2297 10.3479 21.2297 10.7758C21.2297 11.2037 21.5766 11.5506 22.0045 11.5506Z" fill="#B8DBD9"/>
<path d="M10.1812 7.14941C9.45017 7.20415 8.76684 7.53321 8.26823 8.07062C7.76962 8.60803 7.49258 9.31405 7.49268 10.0471V22.3509C7.49472 23.1229 7.80231 23.8627 8.3482 24.4086C8.89409 24.9545 9.63389 25.262 10.4059 25.2641H17.0614" stroke="#B8DBD9" stroke-width="2" stroke-linecap="round" stroke-linejoin="round"/>
<path d="M17.0614 25.2641H22.7097C23.4817 25.262 24.2215 24.9544 24.7674 24.4085C25.3133 23.8626 25.6209 23.1228 25.6229 22.3508V10.0471C25.6209 9.27511 25.3133 8.53531 24.7674 7.98941C24.2215 7.44352 23.4817 7.13594 22.7097 7.13389H10.406C10.3313 7.12594 10.256 7.12594 10.1813 7.13389" stroke="#B8DBD9" stroke-width="2" stroke-linecap="round" stroke-linejoin="round"/>
<path d="M18.1074 12.1238C17.2357 11.7932 16.2811 11.7501 15.3831 12.0007C14.4852 12.2513 13.6909 12.7825 13.1164 13.5168C12.5418 14.251 12.2172 15.1497 12.1899 16.0816C12.1625 17.0135 12.434 17.9297 12.9645 18.6963C13.495 19.4629 14.2568 20.0398 15.1385 20.3426C16.0203 20.6454 16.9758 20.6583 17.8653 20.3793C18.7549 20.1004 19.532 19.5442 20.0829 18.7921C20.6339 18.0401 20.9299 17.1315 20.9276 16.1992" stroke="#B8DBD9" stroke-width="2" stroke-linecap="round" stroke-linejoin="round"/>
</svg>
