<svg width="93" height="40" viewBox="0 0 93 40" fill="none" xmlns="http://www.w3.org/2000/svg">
<path d="M38.6908 23.0632C38.9316 22.9565 39.1457 22.8765 39.3508 22.7787C42.5258 21.3292 45.469 19.4618 48.4389 17.6477C49.9729 16.7051 51.5069 15.7536 53.2103 15.1222C53.8257 14.891 54.4589 14.6509 55.1546 14.8199C56.1267 15.06 56.4924 15.6558 56.2605 16.6428C56.0643 17.4876 55.547 18.1279 55.0029 18.7681C54.2538 19.6574 53.4779 20.5289 52.7465 21.4448C52.3987 21.8716 52.149 22.3785 51.8547 22.8409C51.7744 22.9743 51.6674 23.081 51.5693 23.2055C51.5336 23.1877 51.489 23.1788 51.4533 23.161C51.4712 22.9921 51.4712 22.8231 51.5158 22.6631C51.9439 21.3025 52.7555 20.1643 53.7097 19.1238C54.0665 18.7326 54.4411 18.3591 54.78 17.95C54.9048 17.7989 54.9316 17.5588 54.994 17.3542C54.78 17.2831 54.5481 17.1052 54.3697 17.1586C53.4689 17.4076 52.5147 17.5943 51.7031 18.0301C49.6161 19.1505 47.6094 20.4221 45.5403 21.5871C43.4266 22.7787 41.2861 23.9258 39.1546 25.0818C38.9138 25.2063 38.8068 25.3308 38.8246 25.6154C38.9405 27.4739 39.0119 29.3324 39.1546 31.1821C39.2438 32.3648 39.3954 33.5475 39.6094 34.7124C39.761 35.5483 40.207 36.2508 41.1078 36.6866C41.0186 36.5354 40.974 36.4465 40.9115 36.3664C40.1089 35.2193 39.7521 33.9299 39.7432 32.5338C39.7432 29.8126 41.3664 27.7229 44.0331 27.0826C44.9606 26.8603 45.9149 26.7447 46.8513 26.558C48.4745 26.2379 49.7142 25.3308 50.6774 24.0147C50.7755 23.8813 50.9004 23.7657 51.0163 23.6412C51.052 23.659 51.0966 23.6768 51.1323 23.6946C51.0877 23.908 51.0609 24.1392 50.9896 24.3437C50.0085 26.9759 48.1535 28.5677 45.3619 29.0835C44.3809 29.2613 43.3909 29.4392 42.4634 29.786C41.1078 30.2839 40.8491 30.613 41.2059 32.2047C41.5715 33.8498 42.5972 35.0859 43.935 36.0552C44.7822 36.6688 45.7454 36.731 46.7532 36.4731C49.1345 35.8507 51.3106 34.8547 53.1835 33.2363C53.2727 33.1651 53.3708 33.1029 53.5492 33.094C53.3263 33.841 53.1925 34.6324 52.8625 35.326C52.6663 35.744 52.1936 36.0552 51.7833 36.3398C49.4823 37.9404 46.9762 39.0964 44.1936 39.5411C42.615 39.7989 41.081 39.6478 39.7967 38.5362C38.8692 37.7448 38.4322 36.6777 38.2627 35.5305C38.0754 34.2589 38.0041 32.9695 37.9149 31.6801C37.79 29.7415 37.6919 27.8029 37.576 25.811C37.0765 25.9978 36.6217 26.1667 36.1579 26.3446C34.2137 27.0915 32.2159 27.6251 30.1646 27.9986C30.0576 28.0164 29.906 28.1231 29.8792 28.2209C29.6563 29.0123 29.4333 29.8126 29.2638 30.6219C29.1836 31.0042 29.2638 31.3955 29.5938 31.6801C29.9595 31.9913 30.3608 31.9468 30.6195 31.5378C30.7711 31.2977 30.8692 31.0309 31.0208 30.7908C30.9941 31.4578 30.9049 32.1069 30.45 32.6316C30.013 33.1473 29.3976 33.1029 29.0052 32.5515C28.5593 31.9202 28.5504 31.2266 28.7644 30.524C29.0052 29.7593 29.2995 29.0123 29.5671 28.2565C29.5849 28.212 29.5938 28.1586 29.5938 28.1497C27.9171 28.2565 26.2404 28.3721 24.537 28.4788C24.4924 28.8256 24.4656 29.2257 24.4032 29.617C24.2427 30.693 23.6986 31.5911 23.003 32.4004C20.8268 34.9169 18.2939 36.9889 15.1814 38.2783C14.236 38.6696 13.2371 38.9097 12.2115 38.6785C10.8112 38.3584 9.99072 37.3713 9.47344 36.1085C8.66185 34.1166 8.7332 32.0802 9.2594 30.035C9.30399 29.866 9.34858 29.697 9.41993 29.4303C9.02751 29.7148 8.71536 29.946 8.39429 30.1683C6.93164 31.1643 5.55817 31.191 4.36308 30.2306C3.71202 29.697 3.29284 29.0034 3.04312 28.2031C2.4099 26.1934 2.6507 24.2015 3.32852 22.2629C3.64067 21.3559 4.05092 20.4844 4.47902 19.4707C3.08771 20.2888 1.79452 21.0535 0.385377 21.8805C0.554831 21.4003 0.679688 21.0179 0.822386 20.6356C1.04535 20.022 1.17021 19.3284 2.06208 19.115C1.71425 18.9371 1.48236 18.8215 1.26832 18.697C0.171327 18.0834 -0.230009 17.3009 0.126735 16.1004C0.759957 13.984 2.10667 12.4722 4.22038 11.7253C5.13008 11.4051 5.81681 11.9209 5.89708 12.8813C5.96843 13.6549 5.72762 14.3575 5.40655 15.0333C5.29061 15.2823 5.13008 15.2912 4.97846 15.0689C4.84468 14.8732 4.73766 14.6598 4.59496 14.4731C4.30065 14.0907 3.95282 13.9929 3.48905 14.1351C2.70422 14.3752 2.04424 14.8288 1.46453 15.4068C1.23264 15.638 1.24156 15.8158 1.53587 16.0026C2.48125 16.6162 3.49797 17.0341 4.60388 17.2297C4.84468 17.2742 5.139 17.2208 5.36196 17.1141C6.37868 16.6428 7.37757 16.1271 8.37645 15.638C8.50131 15.5757 8.62617 15.5313 8.84914 15.4334C8.79562 15.638 8.76887 15.7625 8.72428 15.8781C8.50131 16.4828 8.41213 17.212 8.01971 17.6655C7.62729 18.119 6.94056 18.3591 6.34301 18.5903C5.44223 18.9371 4.90711 19.5418 4.55929 20.4399C4.07768 21.676 3.52473 22.8854 3.34636 24.2104C3.23042 25.0551 3.21257 25.891 3.47121 26.718C3.97958 28.3721 5.24602 29.0479 6.89596 28.5232C8.05538 28.1586 8.99184 27.4206 9.82127 26.5936C11.3463 25.0729 12.8179 23.4901 14.3162 21.9428C15.7076 20.5111 17.2059 19.2217 19.0342 18.3591C20.149 17.8433 21.2995 17.5054 22.5392 17.9056C23.7878 18.3057 24.3764 19.0705 24.4478 20.3777C24.4656 20.7423 24.4478 21.098 24.4478 21.5693C24.1178 21.3648 23.9038 21.2047 23.654 21.0802C23.0476 20.7867 22.45 20.431 21.8168 20.2532C20.8179 19.9775 19.8725 20.3243 18.9628 20.7334C17.3843 21.4537 16.0732 22.5475 14.887 23.7924C13.3352 25.4286 11.7834 27.056 10.2404 28.6922C10.1513 28.79 10.0621 28.9056 10.0175 29.039C9.63398 30.2751 9.33074 31.5111 9.39318 32.8272C9.52695 35.5127 11.6139 36.5887 13.6563 36.2686C15.6273 35.9574 17.2861 34.9436 18.8737 33.8143C20.6574 32.5426 22.2895 31.1021 23.6184 29.3413C23.8057 29.0924 23.8056 28.9056 23.6986 28.6388C23.5827 28.3365 23.3597 28.4076 23.1546 28.3987C22.1022 28.3454 21.0409 28.3543 19.9974 28.2209C18.9182 28.0875 18.2048 27.1982 18.1602 26.1222C18.1067 24.7884 18.5348 23.6412 19.5336 22.7342C20.2382 22.0939 20.9339 22.0317 21.7276 22.5564C22.8514 23.2944 23.5292 24.3793 24.0019 25.6065C24.1089 25.8822 24.2159 25.98 24.5191 25.9889C28.8536 26.1222 33.0186 25.3041 37.0409 23.7302C37.2995 23.6323 37.4155 23.5256 37.3887 23.2322C37.2638 21.5159 37.1657 19.7997 37.0587 18.0834C36.9695 16.6962 36.8893 15.3178 36.7912 13.9306C36.6752 12.3833 36.5414 10.836 36.3898 9.28872C36.265 7.95484 36.1133 6.62097 35.9528 5.28709C35.8904 4.77132 35.7833 4.24666 35.6406 3.74868C35.4266 2.96614 35.2661 2.93057 34.6418 3.49969C34.6507 3.39298 34.6507 3.32184 34.6774 3.25959C34.9272 2.64601 35.1858 2.03243 35.4444 1.41884C35.489 1.32103 35.5336 1.21431 35.605 1.12539C35.9706 0.654086 36.372 0.671871 36.5503 1.24099C36.7733 1.97907 36.9338 2.73494 37.0409 3.49969C37.2638 5.09145 37.4511 6.68321 37.6117 8.28386C37.7544 9.71556 37.8614 11.1561 37.9684 12.5967C38.1111 14.4375 38.2449 16.2782 38.3608 18.119C38.4589 19.6307 38.5392 21.1336 38.6373 22.6453C38.6819 22.7787 38.6819 22.8943 38.6908 23.0632ZM22.2271 25.98C21.6652 25.0463 20.9784 24.5838 20.3096 24.6817C19.8547 24.7439 19.5158 24.984 19.3731 25.4731C20.2471 26.0244 21.2282 25.8644 22.2271 25.98Z" fill="#0C1F34"/>
<path d="M56.5815 28.4165C55.3508 27.4383 55.4221 26.0867 55.7699 24.735C56.0107 23.7746 56.4121 22.8587 56.751 21.925C57.0899 20.9735 57.4467 20.0309 57.8034 19.0883C57.848 18.9638 57.9015 18.8393 57.9461 18.7148C57.9907 18.7237 58.0353 18.7326 58.0799 18.7415C58.0353 19.0349 58.0174 19.3373 57.9372 19.6129C57.5358 20.9201 57.0899 22.2095 56.6886 23.5167C56.4834 24.1926 56.3497 24.8862 56.4745 25.5976C56.6083 26.3712 57.1345 26.9137 57.7856 26.9226C58.2761 26.9226 58.6061 26.7092 58.7934 26.2645C58.8469 26.14 58.9004 26.0244 58.9539 25.8999C58.9896 25.9088 59.0342 25.9177 59.0698 25.9266C59.0431 26.1311 59.0342 26.3357 58.9896 26.5313C58.8915 26.9226 58.8023 27.3138 58.6596 27.6784C58.4188 28.2742 57.9907 28.6122 57.3129 28.5855C57.188 28.5766 56.9829 28.6744 56.9294 28.7722C56.3229 30.0616 55.7164 31.3511 55.44 32.7561C55.1813 34.0899 55.1456 35.3971 55.9037 36.731C56.6083 36.1174 57.295 35.5305 58.0174 34.8992C57.5537 34.5968 56.8759 34.6857 56.9115 34.0455C56.9294 33.592 57.0721 33.1384 57.1613 32.6849C57.1256 32.5515 57.0275 32.3648 57.0631 32.2225C57.1345 31.938 57.2683 31.6801 57.6607 31.7245C58.8558 31.8579 60.1579 32.8361 60.0866 34.1255C60.042 34.8636 59.7031 35.1748 58.9539 35.0592C58.7488 35.0237 58.5526 34.9703 58.392 34.9347C58.0531 35.3616 57.7677 35.7795 57.4199 36.153C57.081 36.5087 56.6796 36.8111 56.2872 37.1579C56.9472 37.7626 57.7142 37.8248 58.5169 37.6825C59.6228 37.478 60.5325 36.8644 61.3084 36.1085C63.0029 34.4456 64.6351 32.7205 66.3028 31.022C67.8547 29.4392 69.5224 27.9986 71.6362 27.1805C72.7777 26.7358 73.9372 26.6113 75.0966 27.1982C75.9884 27.6518 76.3809 28.3898 76.4522 29.3325C76.479 29.7237 76.4611 30.115 76.4611 30.6219C76.1222 30.4173 75.8636 30.2751 75.6228 30.1061C74.4901 29.3325 73.2683 28.959 71.9305 29.4481C71.1992 29.7237 70.4678 30.0527 69.7989 30.4529C68.256 31.3599 67.0609 32.6671 65.8658 33.9743C64.3675 35.6017 62.9316 37.2824 61.1925 38.6696C60.8357 38.9542 60.4611 39.2209 60.0687 39.461C58.4277 40.457 56.6707 40.0479 55.6273 38.4384C55.5113 38.2516 55.3954 38.0649 55.2705 37.8604C54.2092 38.5006 53.1479 39.0875 51.9349 39.3187C51.9171 39.2832 51.8993 39.2476 51.8814 39.212C52.0509 39.1053 52.2114 38.9986 52.3809 38.8919C53.1925 38.4028 54.0041 37.9315 54.8067 37.4335C54.9138 37.3713 55.0208 37.1668 54.994 37.0689C54.4678 35.0059 54.7354 33.0051 55.4756 31.0487C55.7789 30.1683 56.198 29.3147 56.5815 28.4165ZM59.7833 34.3034C59.7566 34.3478 59.8101 34.2589 59.7833 34.3034C59.5 33.5 59.5 33.5 58.8143 33.094C58.8143 33.3604 59 33.5 58.6507 34.17C59.052 34.2144 59.4177 34.2589 59.7833 34.3034ZM58.285 34.0366C58.3474 33.6364 58.392 33.2274 58.0085 33.0673C57.8658 33.0051 57.5537 33.2807 57.3664 33.4586C57.188 33.6275 57.2415 33.8143 57.5091 33.8765C57.7588 33.9299 58.0085 33.9743 58.285 34.0366Z" fill="#0C1F34"/>
<path d="M75.1768 3.89985C75.1323 3.81982 75.1233 3.80204 75.1233 3.79314C75.4622 2.87721 75.7833 1.9435 76.4522 1.20542C76.7465 0.885292 77.1389 0.894184 77.3619 1.29435C77.683 1.86347 77.9951 2.48594 78.0932 3.11731C78.3608 4.86914 78.5481 6.62986 78.6997 8.39057C78.9227 10.836 79.101 13.2815 79.2705 15.7269C79.3864 17.4165 79.4399 19.1061 79.547 20.7956C79.654 22.4674 79.6183 24.1481 80.0464 25.7932C80.2515 26.5669 80.5459 27.2872 81.2593 27.7585C82.3028 28.4343 83.8279 28.292 84.8625 27.5362C84.9517 27.4739 85.0052 27.2516 84.9695 27.136C84.7198 26.3357 84.479 25.5265 84.1579 24.7617C83.9795 24.3438 83.8368 23.9703 83.9617 23.499C84.1044 22.9565 84.1668 22.3963 84.2649 21.845C84.3184 21.8094 84.3719 21.7738 84.4254 21.7293C84.47 21.8272 84.4968 21.9428 84.5503 22.0317C85.8792 24.1125 86.2359 26.3001 85.4333 28.6833C84.7376 30.7375 81.8836 31.0487 80.5904 30.035C79.4043 29.1101 78.887 27.8563 78.7265 26.4602C78.5392 24.7973 78.4857 23.1166 78.3697 21.4448C78.2359 19.3995 78.1021 17.3453 77.9684 15.3001C77.8792 14.0018 77.8078 12.7034 77.7008 11.4051C77.5581 9.75113 77.3976 8.09712 77.2192 6.44311C77.1568 5.85621 77.0498 5.2693 76.9516 4.6824C76.916 4.49565 76.8357 4.30891 76.7465 4.13995C76.4879 3.65976 76.149 3.53526 75.6406 3.7309C75.4801 3.78425 75.3285 3.83761 75.1768 3.89985Z" fill="#0C1F34"/>
<path d="M74.0174 39.4432C74.5971 39.2387 75.1768 39.0253 75.7655 38.8386C80.8223 37.1757 85.4332 34.6769 89.6607 31.4755C90.4366 30.8886 91.1055 30.1772 91.8457 29.5459C92.1311 29.2969 92.1044 29.0568 91.9706 28.7455C91.4533 27.6162 90.9628 26.478 90.4633 25.3308C90.2404 24.8062 90.2761 24.1659 89.7409 23.7924C89.7142 23.7746 89.7053 23.6857 89.7142 23.6412C89.8658 22.8943 90.0263 22.1473 90.2047 21.2669C91.0966 22.4408 91.9082 23.499 92.7198 24.5661C92.693 24.6105 92.6573 24.6461 92.6306 24.6906C92.5057 24.6639 92.3898 24.655 92.2649 24.6194C92.1311 24.5838 92.0063 24.5305 91.7565 24.4416C91.9349 24.8506 92.0687 25.1708 92.2203 25.482C92.6841 26.4424 93.0408 27.4206 92.9962 28.5054C92.9338 29.9105 92.4879 31.1554 91.5068 32.1869C90.0085 33.752 88.2337 34.9792 86.4054 36.1263C84.9784 37.0245 83.4801 37.8248 82.0174 38.6696C81.2148 39.132 80.3051 39.212 79.4132 39.301C77.8078 39.461 76.2025 39.55 74.5882 39.6478C74.4098 39.6567 74.2226 39.6033 74.0353 39.5766C74.0263 39.5411 74.0264 39.4877 74.0174 39.4432Z" fill="#0C1F34"/>
<path d="M63.5559 21.4359C62.4946 20.5289 61.8792 19.2128 60.7019 18.4124C60.6306 18.368 60.5592 18.2524 60.5682 18.1812C60.693 17.4254 60.8446 16.6784 60.9873 15.9048C62.0219 16.625 63.0029 17.3098 64.0999 18.0745C63.7075 18.1635 63.4221 18.2346 63.0832 18.3146C63.5916 18.8571 64.0821 19.3728 64.6529 19.9775C65.6518 18.3146 66.6239 16.7051 67.6406 15.0155C67.6317 15.2467 67.6406 15.4068 67.6139 15.5668C67.3642 17.292 66.5615 18.7859 65.625 20.2176C65.3842 20.5911 65.3753 20.8045 65.7053 21.1158C67.7298 22.9921 67.3195 25.811 66.3207 27.3316C65.4377 28.6833 64.0553 29.3413 62.4143 29.3325C61.9595 29.3325 61.6919 29.0746 61.567 28.5588C61.1033 26.6825 61.3708 24.904 62.3697 23.25C62.7443 22.6453 63.1456 22.0673 63.5559 21.4359ZM64.3318 22.2362C63.4935 23.4812 62.664 24.6283 62.1468 25.9444C61.8703 26.638 62.1468 27.0115 62.8959 26.9048C64.2337 26.7092 65.3664 26.1045 66.1958 25.0196C66.285 24.904 66.3028 24.6194 66.2226 24.5127C65.625 23.7568 64.9918 23.0277 64.3318 22.2362Z" fill="#0C1F34"/>
<path d="M10.2226 0.440666C10.8915 2.28142 11.6317 4.10438 12.042 6.03406C11.9974 6.06963 11.9439 6.09631 11.8993 6.13188C11.5961 5.78507 11.2928 5.42937 10.945 5.0292C10.9718 5.53608 10.9985 5.9896 11.0253 6.43422C11.1858 8.67514 11.3642 10.916 11.5247 13.1481C11.6407 14.7132 11.8458 16.2693 11.819 17.8344C11.7923 19.7641 11.2126 21.5693 9.97289 23.0988C9.29507 23.9258 8.37645 24.4238 7.3954 24.8062C6.57489 25.1263 5.7187 25.3753 4.88035 25.6509C4.76441 25.6865 4.63955 25.6865 4.52361 25.7043C4.50577 25.6687 4.47902 25.6421 4.46118 25.6065C4.60388 25.4909 4.74658 25.3575 4.89819 25.2508C6.13788 24.3793 7.39541 23.5434 8.60834 22.6453C9.16129 22.2362 9.6429 21.7205 10.1245 21.2225C10.7131 20.6 10.9004 19.8352 10.838 18.9993C10.6418 16.3849 10.4634 13.7705 10.2583 11.165C10.071 8.79963 9.8837 6.44311 9.66965 4.0866C9.63398 3.66865 9.41101 3.27738 9.28615 2.86832C9.25939 2.7794 9.18805 2.67269 9.2148 2.60155C9.50912 1.88125 9.81235 1.16096 10.1156 0.440666C10.1423 0.422881 10.178 0.431773 10.2226 0.440666Z" fill="#0C1F34"/>
<path d="M66.4901 2.84165C66.0353 4.54901 64.6529 5.24262 63.1992 5.82064C62.2895 6.18523 61.3441 6.4609 60.4076 6.77214C60.3274 6.79881 60.2382 6.80771 60.1044 6.74546C60.2382 6.66543 60.363 6.5765 60.4968 6.50536C61.8792 5.78507 63.2794 5.08256 64.6529 4.3267C65.3396 3.95321 65.9282 3.43744 66.2493 2.75272C65.8569 2.46816 65.4556 2.23695 65.1167 1.92572C64.7688 1.59669 64.8313 0.992002 65.2148 0.716334C65.3129 0.645194 65.5358 0.645194 65.6339 0.707441C65.9818 0.947539 66.4098 1.16985 66.6061 1.50777C66.9717 2.13024 67.2036 2.83275 67.4801 3.49969C67.5336 3.62419 67.5514 3.75757 67.6049 3.93543C67.7655 2.98393 67.8993 2.08578 68.0776 1.19653C68.1401 0.894184 68.256 0.582946 68.4165 0.307278C68.6217 -0.0573149 68.8714 -0.0839926 69.2192 0.156105C69.8078 0.556269 69.8792 0.849722 69.5046 1.50777C69.46 1.48109 69.4065 1.45441 69.3708 1.42774C68.7198 0.867507 68.3898 0.974217 68.2471 1.8279C68.1133 2.61933 68.0241 3.41966 67.8993 4.21109C67.8547 4.52233 67.7744 4.82468 67.6941 5.19816C69.8614 4.38894 71.9751 3.6064 74.2047 2.7794C74.0174 3.29516 73.8837 3.71311 73.7053 4.12217C73.6696 4.21109 73.5091 4.25556 73.3931 4.30002C72.8134 4.52233 72.2159 4.71797 71.6451 4.95806C71.5024 5.02031 71.3597 5.19816 71.3062 5.34933C71.0921 6.01627 70.9048 6.6921 70.7354 7.37683C70.664 7.6525 70.6551 7.95484 70.6551 8.2394C70.6551 8.70181 70.9584 9.08419 71.3508 9.16422C71.6986 9.23536 71.9483 9.04862 72.1713 8.55064C72.2337 8.39947 72.2872 8.24829 72.3496 8.08823C72.5369 8.67514 72.091 9.86673 71.5916 10.1602C71.1902 10.3914 70.6997 10.2758 70.4143 9.86673C69.9238 9.18201 69.9684 8.42614 70.1913 7.67917C70.4232 6.91442 70.7354 6.17634 71.0119 5.42048C71.0386 5.35823 71.0475 5.29598 71.0921 5.14481C67.0877 6.64764 63.1456 8.11491 59.2304 9.58217C59.4355 8.87077 59.605 8.15048 60.5592 7.83035C62.6997 7.11005 64.7867 6.27416 66.9093 5.50051C67.275 5.36712 67.3731 5.20705 67.2393 4.83357C67.0074 4.17552 66.8112 3.49969 66.5971 2.83275C66.5793 2.84165 66.5347 2.84165 66.4901 2.84165Z" fill="#0C1F34"/>
<path d="M23.2795 3.41966C22.8514 3.09953 22.45 2.85054 22.12 2.53041C21.799 2.21028 21.9149 1.57891 22.2716 1.32992C22.3341 1.28545 22.4768 1.27656 22.5303 1.32103C22.9049 1.57002 23.3865 1.76565 23.6005 2.11246C24.0465 2.83275 24.3408 3.63308 24.6797 4.36227C24.7332 3.99767 24.7956 3.53526 24.8759 3.07285C24.974 2.53041 25.0721 1.98796 25.2148 1.45441C25.304 1.12539 25.4021 0.734119 25.8213 0.689656C26.285 0.636301 26.5437 1.00979 26.7042 1.33881C26.8023 1.55223 26.6685 1.88125 26.6329 2.24585C26.4545 2.09467 26.3742 2.04132 26.3029 1.97907C25.7588 1.55223 25.4645 1.64116 25.3218 2.31699C25.188 2.99282 25.1702 3.69533 25.0097 4.36227C24.7689 5.40269 24.421 6.42533 24.1802 7.46575C24.0643 7.93706 24.0375 8.44393 24.0465 8.93302C24.0554 9.35986 24.3764 9.60885 24.7867 9.65331C25.1702 9.69777 25.3486 9.40432 25.4823 9.10198C25.5626 8.92412 25.634 8.73738 25.7499 8.56843C25.7053 9.29761 25.634 10.0179 25.0543 10.5515C24.7064 10.8716 24.2337 10.8449 23.8948 10.4981C23.2795 9.84895 23.2705 9.06641 23.5113 8.28386C23.7254 7.57246 24.0286 6.88774 24.2605 6.17634C24.3229 5.99849 24.3408 5.76728 24.2873 5.58054C24.091 4.87803 23.8592 4.19331 23.6451 3.49969C23.5381 3.52637 23.4935 3.52637 23.4846 3.53526C23.0922 4.96696 22.0041 5.71393 20.7376 6.22969C19.6407 6.68321 18.4991 7.03002 17.3753 7.42129C17.304 7.44797 17.2148 7.44797 17.0989 7.37683C17.2148 7.30569 17.3307 7.22566 17.4467 7.16341C18.4991 6.63875 19.5604 6.12298 20.6039 5.58054C21.4511 5.13591 22.2984 4.6735 22.9227 3.91764C23.0743 3.73979 23.1903 3.53526 23.2795 3.41966Z" fill="#0C1F34"/>
<path d="M39.6719 16.0204C39.8502 15.9048 40.0286 15.7803 40.207 15.6735C41.5983 14.8732 43.0342 14.1351 44.3809 13.2726C45.6117 12.49 46.6997 11.4941 47.5381 10.2847C47.7164 10.0268 47.8591 9.74224 48.0018 9.49325C47.6362 9.27983 47.2794 9.12865 46.9851 8.88856C46.6373 8.604 46.4232 8.2394 46.7176 7.73253C46.9138 7.40351 47.0921 7.35904 47.4132 7.49243C47.984 7.74142 48.3497 8.18605 48.5994 8.7196C48.8759 9.3154 49.0721 9.94677 49.3218 10.6048C49.4199 9.94677 49.5002 9.32429 49.6161 8.70181C49.7053 8.2394 49.8034 7.78588 49.955 7.34126C50.1245 6.85217 50.4188 6.69211 50.7399 6.83439C51.2482 7.0567 51.5158 7.56357 51.3552 7.97263C51.3196 8.06155 51.275 8.15048 51.2036 8.29276C51.052 8.17716 50.9182 8.07045 50.7755 7.97263C50.4188 7.73253 50.1423 7.79478 50.0442 8.21272C49.8837 8.87077 49.8034 9.5466 49.6875 10.2135C49.6072 10.7026 49.5358 11.2006 49.4199 11.6808C49.3842 11.8409 49.2326 11.9832 49.1078 12.1521C48.8134 11.254 48.5459 10.4447 48.2872 9.6711C47.8681 10.4181 47.5292 11.1739 47.0476 11.8231C45.7008 13.6638 43.8725 14.8465 41.6875 15.5046C41.1434 15.6647 40.6083 15.8603 40.0732 16.0381C39.9483 16.0826 39.8146 16.1004 39.6897 16.1271C39.7075 16.0826 39.6897 16.0559 39.6719 16.0204Z" fill="#0C1F34"/>
<path d="M75.7298 35.1126C75.3641 35.8773 75.0252 36.5799 74.6685 37.3357C73.8569 36.8644 73.081 36.4109 72.2605 35.9396C71.868 36.6243 71.5024 37.2646 71.1278 37.9315C70.4232 37.5314 69.7365 37.149 69.0587 36.7488C68.9962 36.7132 68.9427 36.5265 68.9784 36.4554C69.2638 35.7973 69.576 35.1571 69.9149 34.4279C70.6997 34.8814 71.4667 35.3171 72.2783 35.7884C72.6529 35.1304 73.0185 34.4812 73.4199 33.7787C74.1958 34.2233 74.945 34.6591 75.7298 35.1126Z" fill="#0C1F34"/>
<path d="M30.2092 20.0309C29.5136 19.6396 28.8447 19.275 28.1936 18.8837C28.1223 18.8393 28.0777 18.6348 28.1133 18.5547C28.3987 17.8967 28.7109 17.2475 29.0409 16.5539C29.8168 16.9985 30.566 17.4343 31.3508 17.8878C31.7343 17.2031 32.1089 16.545 32.5102 15.8336C33.2683 16.2782 34.0085 16.7051 34.7845 17.1586C34.4277 17.9056 34.0888 18.617 33.7231 19.3817C32.9383 18.9193 32.1713 18.4747 31.3776 18.0123C30.9762 18.6881 30.5927 19.355 30.2092 20.0309Z" fill="#0C1F34"/>
<path d="M63.7432 13.4682C63.1367 12.9524 62.557 12.4545 61.9327 11.9298C62.4322 11.2984 62.9138 10.6848 63.4489 10.009C64.1267 10.5781 64.7778 11.1206 65.4645 11.6986C65.081 12.1877 64.7064 12.6501 64.314 13.157C64.9026 13.6638 65.5002 14.1707 66.1334 14.7132C65.625 15.3534 65.1256 15.9759 64.6083 16.625C63.9751 16.0915 63.3864 15.5846 62.7889 15.0955C62.6016 14.9444 62.6284 14.8199 62.7711 14.6509C63.101 14.2863 63.4043 13.8862 63.7432 13.4682Z" fill="#0C1F34"/>
<path d="M15.0922 12.0187C15.4489 11.414 15.7967 10.8093 16.1624 10.2135C16.1981 10.1513 16.314 10.0979 16.3943 10.089C17.5894 9.92898 18.7756 10.0179 19.9528 10.258C19.9706 10.258 19.9796 10.2669 19.9974 10.2669C20.7733 10.4803 20.8179 10.5692 20.4701 11.2984C20.2382 11.7697 19.9974 12.2321 19.7477 12.6946C19.3731 13.3704 18.7666 13.735 18.0086 13.8417C17.2861 13.9395 16.5637 14.0018 15.8413 14.0818C15.8235 14.0284 15.8146 13.9662 15.7967 13.9128C15.9127 13.8595 16.0286 13.7883 16.1535 13.7528C17.1524 13.4771 18.0888 13.0858 18.945 12.5078C19.0342 12.4456 19.1145 12.3744 19.2036 12.3122C19.2036 12.2677 19.1947 12.2321 19.1947 12.1877C17.848 12.1877 16.5013 12.1877 15.1635 12.1877C15.1368 12.1254 15.11 12.0721 15.0922 12.0187Z" fill="#0C1F34"/>
<path d="M33.1167 7.02113C33.8569 7.48354 33.741 8.15937 33.5448 8.86188C33.3575 9.51992 33.1434 10.178 32.9918 10.8449C32.9383 11.085 33.0097 11.3696 33.0899 11.6097C33.1791 11.8675 33.3486 12.1254 33.6964 12.081C34.0353 12.0365 34.1691 11.7786 34.2493 11.4763C34.2761 11.3518 34.2939 11.2184 34.3653 11.0939C34.4545 11.6097 34.4723 12.1165 34.2048 12.5967C33.8926 13.157 33.2951 13.1836 32.9383 12.6501C32.5013 12.0009 32.528 11.2895 32.7064 10.5692C32.8134 10.1424 32.9472 9.72445 33.0899 9.3065C33.3575 8.53286 33.2951 8.31943 32.5905 7.83924C30.4233 10.4359 27.6585 12.1699 24.5191 13.3615C27.2036 11.6186 29.9506 9.96455 32.2248 7.59914C31.9751 7.42129 31.7789 7.27901 31.5827 7.12784C31.2081 6.83438 31.11 6.4609 31.2884 6.01627C31.4935 5.5094 31.8235 5.09145 32.3318 4.88692C32.5726 4.78911 32.9205 4.76243 33.1434 4.86025C33.4734 5.01142 33.5448 5.3849 33.4734 5.73171C33.3842 6.15855 33.2415 6.56761 33.1167 7.02113ZM32.7153 6.75435C32.7689 6.72767 32.8134 6.70989 32.867 6.68321C32.8045 6.38976 32.7689 6.07852 32.6529 5.80285C32.6083 5.69614 32.3764 5.59833 32.2516 5.61611C32.1 5.64279 31.9305 5.77618 31.8502 5.91846C31.8146 5.9807 31.9573 6.18523 32.0643 6.27416C32.2694 6.45201 32.5013 6.59429 32.7153 6.75435Z" fill="#0C1F34"/>
<path d="M71.8324 15.8425C71.6005 16.2516 71.3508 16.0026 71.1367 15.9225C70.8246 15.798 70.5303 15.5935 70.5927 15.2289C70.6373 14.9444 70.8067 14.6687 70.9583 14.4108C70.994 14.3486 71.217 14.3308 71.2883 14.3841C71.654 14.6242 72.1088 14.8288 72.314 15.1756C72.751 15.9136 73.0542 16.7318 73.3753 17.452C73.4377 17.0697 73.5001 16.5628 73.5983 16.0648C73.7142 15.4868 73.8301 14.8999 74.0085 14.3397C74.178 13.8061 74.4723 13.6461 74.8201 13.8061C75.3195 14.0284 75.5782 14.5531 75.3909 14.9888C75.3552 15.0777 75.3106 15.1578 75.2571 15.2645C75.1055 15.1489 74.9806 15.0422 74.8469 14.9533C74.4544 14.6865 74.2226 14.7398 74.1066 15.2022C73.9461 15.8692 73.8123 16.5539 73.7588 17.2386C73.6785 18.1812 73.2058 18.9816 72.965 19.8619C72.7956 20.4666 72.6796 21.098 72.5994 21.7205C72.5726 21.925 72.6707 22.1918 72.7956 22.3785C73.1077 22.8409 73.7053 22.8142 73.9818 22.3251C74.1066 22.1028 74.1958 21.8538 74.2939 21.6315C74.4812 22.2007 74.0442 23.3834 73.5358 23.6946C73.1969 23.8991 72.7956 23.8547 72.5013 23.5701C71.9216 23.001 71.877 22.2718 72.0643 21.5604C72.2783 20.7512 72.6172 19.9775 72.8669 19.1772C72.9383 18.946 72.965 18.6614 72.9115 18.4213C72.7331 17.5143 72.421 16.6606 71.8324 15.8425Z" fill="#0C1F34"/>
<path d="M85.9505 13.5127C86.2984 12.7657 86.6373 12.0543 86.994 11.2895C87.7967 11.6986 88.5548 12.0899 89.3307 12.4989C89.2326 12.7212 89.1612 12.8991 89.072 13.0591C88.3229 14.4286 87.9751 15.9403 87.6183 17.4432C87.547 17.7366 87.5916 18.0834 87.6629 18.3769C87.7432 18.7059 88.0018 18.9104 88.3496 18.9549C88.6975 18.9993 88.8937 18.777 89.0275 18.5103C89.1345 18.3057 89.2058 18.0923 89.3039 17.8611C89.4734 18.4302 89.0275 19.6485 88.5637 19.9331C88.0999 20.2176 87.6094 20.0842 87.2883 19.5685C86.8781 18.9193 86.8959 18.2257 87.1189 17.5321C87.3864 16.7051 87.6807 15.887 88.0018 15.0777C88.1267 14.7487 88.0642 14.5798 87.7521 14.4286C87.1545 14.144 86.5659 13.8328 85.9505 13.5127Z" fill="#0C1F34"/>
<path d="M14.6908 24.6461C14.5303 25.2686 14.3965 25.891 14.2092 26.5046C13.8703 27.5984 13.4422 28.6655 13.1747 29.7771C13.023 30.3996 13.0141 31.1021 13.1301 31.7334C13.2817 32.5515 13.9773 32.9517 14.6552 32.7383C14.896 32.6671 15.1011 32.4448 15.2795 32.2581C15.3954 32.1336 15.44 31.9468 15.5292 31.769C15.8592 32.7739 15.0208 34.33 14.12 34.4456C13.4155 34.5346 12.7644 34.1433 12.4255 33.423C12.0152 32.5338 12.0598 31.6 12.3006 30.7019C12.5414 29.7949 12.8804 28.9234 13.2014 28.0341C13.5671 27.0204 13.9506 26.0155 14.3341 25.0107C14.3876 24.8773 14.4322 24.735 14.4857 24.6016C14.566 24.6105 14.6284 24.6283 14.6908 24.6461Z" fill="#0C1F34"/>
<path d="M32.6708 36.0997C32.6797 36.0997 32.6351 36.0908 32.6083 36.0641C32.1802 35.7706 31.6897 35.4594 31.77 34.8814C31.8592 34.2411 32.2605 33.7342 32.858 33.4497C33.0542 33.3608 33.3932 33.3874 33.5805 33.503C33.6964 33.5742 33.6696 33.9121 33.6607 34.1344C33.6518 34.2589 33.5626 34.3834 33.5091 34.5168C32.8937 34.0277 32.6708 34.0366 32.1535 34.5613C32.421 35.0148 32.8224 35.3171 33.3218 35.4683C33.4288 35.5039 33.6161 35.4149 33.7142 35.326C34.0977 34.9881 34.4634 34.6324 34.8647 34.25C34.838 34.7391 34.6864 35.1482 34.3385 35.4594C33.8034 35.9485 33.2415 36.402 32.7243 36.9C32.4745 37.149 32.2427 37.4424 32.0821 37.7537C31.8502 38.2161 32.0464 38.5985 32.537 38.7496C33.2148 38.963 33.8748 38.7852 34.4901 38.5451C35.0609 38.3228 35.5693 37.9404 36.0955 37.6203C36.256 37.5225 36.3898 37.3802 36.5682 37.2201C36.2025 38.3761 34.6953 39.5144 33.5002 39.5766C33.4199 39.5855 33.3307 39.5766 33.2505 39.5855C31.8413 39.7189 31.324 38.6251 31.7611 37.5047C31.9573 37.0067 32.3497 36.5887 32.6708 36.0997Z" fill="#0C1F34"/>
<path d="M39.6808 3.23292C42.1423 4.86025 43.605 9.84006 42.2226 12.0454C42.1958 11.8231 42.178 11.6897 42.178 11.5563C42.1691 10.7916 42.2226 10.0268 42.1334 9.27093C41.9818 7.97263 41.295 6.91442 40.421 5.97181C40.1802 5.70503 39.9216 5.44715 39.6362 5.22484C39.44 5.06477 39.3686 4.89582 39.4132 4.65572C39.5113 4.19331 39.5916 3.7309 39.6808 3.23292Z" fill="#0C1F34"/>
<path d="M24.1802 36.3753C23.7967 36.7488 23.4935 36.4554 23.217 36.2775C22.9316 36.0997 22.78 35.8329 22.9495 35.4594C23.2973 34.7302 23.547 34.6502 24.1891 35.1659C25.0097 35.8329 25.304 36.7933 25.5537 37.7537C25.5805 37.8515 25.6072 37.9582 25.6607 38.136C25.8302 37.149 25.9729 36.2597 26.1512 35.3705C26.2137 35.0681 26.3475 34.7658 26.508 34.499C26.7042 34.1789 26.9807 34.1522 27.2928 34.3656C27.8547 34.748 27.926 35.0681 27.5782 35.744C27.4444 35.6372 27.3285 35.5305 27.1947 35.4327C26.8201 35.1659 26.5615 35.2282 26.4366 35.655C26.2939 36.1263 26.2315 36.6243 26.1423 37.1134C26.0264 37.7803 25.9283 38.4473 25.7945 39.1142C25.7677 39.2654 25.634 39.3988 25.4913 39.5233C25.1345 38.4384 24.8937 37.3268 24.1802 36.3753Z" fill="#0C1F34"/>
<path d="M29.79 13.2992C30.5749 13.7083 31.324 14.0907 32.1 14.4908C31.7432 15.2467 31.4043 15.967 31.0565 16.714C30.3162 16.3316 29.6117 15.9848 28.9249 15.6113C28.8625 15.5757 28.8447 15.3712 28.8803 15.2823C29.1657 14.6331 29.469 14.0018 29.79 13.2992Z" fill="#0C1F34"/>
<path d="M80.3853 3.79314C81.5893 4.99363 81.848 6.43422 81.5001 8.03487C81.3218 8.85299 81.081 9.6622 80.9204 10.4892C80.8669 10.7827 80.9472 11.1295 81.0542 11.4051C81.1166 11.5652 81.3842 11.7253 81.5537 11.7342C81.6874 11.7342 81.8569 11.503 81.9461 11.334C82.0353 11.165 82.0353 10.9605 82.1244 10.7738C82.2493 11.3607 82.2671 11.9387 81.9461 12.4722C81.6696 12.9347 81.0453 12.8813 80.7599 12.3833C80.4388 11.832 80.4656 11.2273 80.5726 10.6493C80.7153 9.84006 80.9204 9.03084 81.1256 8.23051C81.4288 7.06559 81.1523 6.05184 80.4032 5.13591C79.9305 4.5579 79.9305 4.49565 80.3853 3.79314Z" fill="#0C1F34"/>
<path d="M55.4489 5.87399C55.3329 6.37197 55.2259 6.87885 55.11 7.37683C54.9762 7.95484 54.8157 8.52396 54.7086 9.10198C54.664 9.3154 54.6908 9.5466 54.7532 9.76002C54.8513 10.0979 55.0921 10.3291 55.4667 10.3647C55.8145 10.4003 56.0108 10.1869 56.1445 9.92009C56.2516 9.70667 56.3318 9.47546 56.4567 9.26204C56.4567 9.92898 56.3497 10.5692 55.9305 11.1117C55.4846 11.6719 54.8424 11.6275 54.4411 11.0405C54.013 10.4181 54.0041 9.73335 54.2181 9.05751C54.45 8.29276 54.7532 7.55468 55.0119 6.79882C55.1189 6.48758 55.217 6.17634 55.3151 5.8651C55.3419 5.8651 55.3954 5.8651 55.4489 5.87399Z" fill="#0C1F34"/>
<path d="M15.7343 1.05425C15.6184 1.54334 15.5113 2.03243 15.3954 2.52151C15.2616 3.07285 15.0922 3.6064 14.9762 4.15774C14.896 4.5579 14.9405 4.96696 15.2438 5.28709C15.6005 5.66057 16.091 5.61611 16.3586 5.17148C16.4924 4.94917 16.5727 4.70018 16.7599 4.46898C16.7421 4.61126 16.751 4.75354 16.7064 4.88692C16.5905 5.27819 16.4924 5.68725 16.3319 6.06074C16.1892 6.41644 15.877 6.63875 15.4935 6.64764C15.0832 6.65653 14.8068 6.40754 14.6106 6.05184C14.2806 5.45604 14.3073 4.83357 14.4589 4.2022C14.5035 4.02435 14.557 3.85539 14.6195 3.68643C14.9495 2.80608 15.2795 1.91682 15.6094 1.03646C15.654 1.03646 15.6897 1.04536 15.7343 1.05425Z" fill="#0C1F34"/>
</svg>
