<svg width="32" height="33" viewBox="0 0 32 33" fill="none" xmlns="http://www.w3.org/2000/svg">
<path d="M30.3104 4.92622V27.4572C30.3084 28.4067 29.9309 29.3167 29.2602 29.9888C28.5896 30.6609 27.6803 31.0404 26.7309 31.0445H4.57955C3.63145 31.0404 2.72334 30.662 2.05293 29.9916C1.38252 29.3212 1.00408 28.4131 1 27.465V4.92622C1.00408 3.97813 1.38252 3.07002 2.05293 2.39961C2.72334 1.7292 3.63145 1.35076 4.57955 1.34668H26.7309" stroke="#B8DBD9" stroke-width="2" stroke-linecap="round" stroke-linejoin="round"/>
<path d="M30.5 2.5C31.0523 2.5 31.5 2.05228 31.5 1.5C31.5 0.947715 31.0523 0.5 30.5 0.5C29.9477 0.5 29.5 0.947715 29.5 1.5C29.5 2.05228 29.9477 2.5 30.5 2.5Z" fill="#B8DBD9"/>
<path d="M13.6756 18.4002C13.742 18.9782 14.0323 19.5072 14.4842 19.8737C14.9361 20.2401 15.5137 20.4149 16.093 20.3604C16.6722 20.4149 17.2498 20.2401 17.7017 19.8737C18.1536 19.5072 18.4439 18.9782 18.5103 18.4002C18.4458 17.8236 18.1585 17.2952 17.7098 16.9275C17.261 16.5598 16.6864 16.3821 16.1084 16.4322C15.5266 16.491 14.9451 16.3182 14.4898 15.9513C14.0344 15.5844 13.7419 15.0529 13.6756 14.472C13.742 13.8939 14.0323 13.3649 14.4842 12.9984C14.9361 12.632 15.5137 12.4572 16.093 12.5117C16.6722 12.4572 17.2498 12.632 17.7017 12.9984C18.1536 13.3649 18.4439 13.8939 18.5103 14.472" stroke="#B8DBD9" stroke-width="2" stroke-linecap="round" stroke-linejoin="round"/>
<path d="M10.5765 8.90844H10.4215C9.68469 8.89963 8.9661 9.13763 8.38022 9.58455C7.79434 10.0315 7.37486 10.6616 7.1886 11.3745C7.00234 12.0875 7.06002 12.8423 7.35244 13.5186C7.64487 14.195 8.15521 14.7541 8.8022 15.1068C8.72326 15.5441 8.68179 15.9873 8.67823 16.4317C8.6765 18.3731 9.42538 20.2401 10.7683 21.6422C12.1112 23.0443 13.9441 23.8729 15.8838 23.9549" stroke="#B8DBD9" stroke-width="2" stroke-linecap="round" stroke-linejoin="round"/>
<path d="M23.6782 17.4236C23.7209 17.0947 23.7442 16.7636 23.7479 16.4319C23.7479 14.4346 22.9545 12.519 21.5421 11.1067C20.1298 9.69436 18.2143 8.90092 16.2169 8.90092C14.9816 8.89706 13.7648 9.2006 12.6761 9.78418C12.104 9.24983 11.3587 8.93908 10.5764 8.90866" stroke="#B8DBD9" stroke-width="2" stroke-linecap="round" stroke-linejoin="round"/>
<path d="M15.8838 23.9554H16.2092C17.5535 23.9576 18.8733 23.5962 20.0289 22.9094C20.5546 23.251 21.1686 23.4314 21.7955 23.4285C22.6708 23.4285 23.5104 23.0808 24.1294 22.4618C24.7483 21.8428 25.0961 21.0033 25.0961 20.1279" stroke="#B8DBD9" stroke-width="2" stroke-linecap="round" stroke-linejoin="round"/>
</svg>
