<svg width="32" height="33" viewBox="0 0 32 33" fill="none" xmlns="http://www.w3.org/2000/svg">
<path d="M30.4267 4.92622V27.4572C30.4247 28.4067 30.0471 29.3167 29.3765 29.9888C28.7059 30.6609 27.7966 31.0404 26.8472 31.0445H4.70357C3.75547 31.0404 2.84737 30.662 2.17695 29.9916C1.50654 29.3212 1.1281 28.4131 1.12402 27.465V4.92622C1.1281 3.97813 1.50654 3.07002 2.17695 2.39961C2.84737 1.7292 3.75547 1.35076 4.70357 1.34668H26.8472" stroke="#B8DBD9" stroke-width="2" stroke-linecap="round" stroke-linejoin="round"/>
<path d="M30.5 2.5C31.0523 2.5 31.5 2.05228 31.5 1.5C31.5 0.947715 31.0523 0.5 30.5 0.5C29.9477 0.5 29.5 0.947715 29.5 1.5C29.5 2.05228 29.9477 2.5 30.5 2.5Z" fill="#B8DBD9"/>
<path d="M11.0723 16.9898C10.1346 16.6518 9.25609 16.168 8.46904 15.5564C8.0514 15.1879 7.71155 14.7397 7.46941 14.2381C7.22726 13.7366 7.0877 13.1917 7.05892 12.6354C7.05892 12.1861 6.90396 9.92367 7.66326 9.9779C7.78722 9.9779 7.89569 10.0941 7.97317 10.1871C8.17007 10.4229 8.37957 10.648 8.60076 10.8612V10.8612C9.51109 11.7412 10.5916 12.4261 11.776 12.8738C12.9604 13.3214 14.2238 13.5224 15.4887 13.4645C15.3679 12.7562 15.4489 12.0283 15.7225 11.364C15.996 10.6996 16.451 10.1257 17.0354 9.70775C17.6198 9.28985 18.31 9.04487 19.0271 9.00085C19.7443 8.95682 20.4593 9.11552 21.0904 9.45879C21.4669 9.72067 21.8792 9.92682 22.3146 10.0709C22.6303 10.1213 22.9519 10.1213 23.2676 10.0709L25.592 9.80745C24.8012 10.7318 24.1344 11.7555 23.6085 12.8524C23.2445 13.8926 23.0027 14.9717 22.8879 16.0678C22.6508 17.2872 22.1757 18.4479 21.4897 19.4835C20.8037 20.5192 19.9203 21.4094 18.89 22.1034C18.89 22.1034 18.89 22.1034 18.89 22.1034C18.598 22.3002 18.2925 22.4763 17.9758 22.6303V22.6303C17.5496 22.8693 17.1037 23.0715 16.6431 23.2346L16.217 23.3818L15.7444 23.5135C13.5436 24.0076 11.2569 23.9704 9.07338 23.4051L8.16687 23.1959L7.10541 22.9015C8.40777 22.8261 9.6728 22.4381 10.7934 21.7703C11.0181 21.6385 11.2506 21.4526 11.2196 21.2047C11.2037 21.1157 11.1693 21.0311 11.1186 20.9563C11.0678 20.8816 11.0019 20.8184 10.9251 20.7708C10.1175 20.0623 9.4202 19.237 8.85644 18.3224" stroke="#B8DBD9" stroke-width="2" stroke-linecap="round" stroke-linejoin="round"/>
</svg>
