<svg width="32" height="33" viewBox="0 0 32 33" fill="none" xmlns="http://www.w3.org/2000/svg">
<path d="M30.5507 4.93397V27.465C30.5486 28.4144 30.1711 29.3245 29.5005 29.9966C28.8298 30.6687 27.9206 31.0482 26.9711 31.0523H4.81978C3.87168 31.0482 2.96358 30.6697 2.29316 29.9993C1.62275 29.3289 1.24431 28.4208 1.24023 27.4727V4.93397C1.24227 3.98453 1.61981 3.07444 2.29044 2.40236C2.96108 1.73028 3.87034 1.35077 4.81978 1.34668H26.9711" stroke="#B8DBD9" stroke-width="2" stroke-linecap="round" stroke-linejoin="round"/>
<path d="M30.5001 2.5C31.0523 2.5 31.5001 2.05228 31.5001 1.5C31.5001 0.947715 31.0523 0.5 30.5001 0.5C29.9478 0.5 29.5001 0.947715 29.5001 1.5C29.5001 2.05228 29.9478 2.5 30.5001 2.5Z" fill="#B8DBD9"/>
<path d="M14.985 13.3404L13.4742 11.8296L12.8001 12.5037C12.3544 12.9497 12.1041 13.5544 12.1041 14.185C12.1041 14.8155 12.3544 15.4202 12.8001 15.8663L16.5036 19.5698C16.9496 20.0155 17.5544 20.2658 18.1849 20.2658C18.8155 20.2658 19.4202 20.0155 19.8662 19.5698L20.5403 18.8957L19.4014 17.749" stroke="#B8DBD9" stroke-width="2" stroke-linecap="round" stroke-linejoin="round"/>
<path d="M25.1348 16.1992C25.135 17.749 24.7275 19.2716 23.953 20.614C23.1786 21.9565 22.0646 23.0715 20.7229 23.8472C19.3812 24.6228 17.859 25.0318 16.3092 25.0331C14.7594 25.0343 13.2366 24.6277 11.8936 23.8542L9.8869 24.3888L7.46954 25.0319L8.11262 22.6145L8.64723 20.6078C7.97161 19.4341 7.57492 18.1208 7.48783 16.7693C7.40074 15.4179 7.62557 14.0645 8.14495 12.8138C8.66433 11.5631 9.46435 10.4486 10.4832 9.5564C11.502 8.66421 12.7123 8.01824 14.0206 7.66842C15.3289 7.3186 16.7001 7.2743 18.0283 7.53895C19.3564 7.80359 20.6059 8.37009 21.6802 9.19467C22.7545 10.0192 23.6247 11.0798 24.2238 12.2944C24.8228 13.5089 25.1345 14.845 25.1348 16.1992V16.1992Z" stroke="#B8DBD9" stroke-width="2" stroke-linecap="round" stroke-linejoin="round"/>
</svg>
